<?xml version="1.0" standalone="no"?>
<!DOCTYPE svg PUBLIC "-//W3C//DTD SVG 1.1//EN" "http://www.w3.org/Graphics/SVG/1.1/DTD/svg11.dtd" >
<svg xmlns="http://www.w3.org/2000/svg">
<metadata></metadata>
<defs>
<font id="code_boldregular" horiz-adv-x="588" >
<font-face units-per-em="1000" ascent="700" descent="-300" />
<missing-glyph horiz-adv-x="352" />
<glyph unicode="fi" horiz-adv-x="749" d="M117 299v-299h-101v699h417v-101h-316v-197h280v-102h-280zM711 699v-100h-130v-504h130v-95h-361v95h130v604h231z" />
<glyph unicode="fl" horiz-adv-x="939" d="M122 299v-299h-101v699h417v-101h-316v-197h280v-102h-280zM578 699v-598h329v-101h-430v699h101z" />
<glyph unicode=" "  horiz-adv-x="352" />
<glyph unicode="&#x09;" horiz-adv-x="352" />
<glyph unicode="&#xa0;" horiz-adv-x="352" />
<glyph unicode="!" horiz-adv-x="205" d="M32 700h105v-546h-105v546zM82 115q29 0 46.5 -17.5t17.5 -45.5q0 -23 -18 -40.5t-46 -17.5q-24 0 -42 17.5t-18 40.5q0 28 17.5 45.5t42.5 17.5z" />
<glyph unicode="&#x22;" horiz-adv-x="288" d="M2 698h97v-248h-97v248zM142 698h97v-248h-97v248z" />
<glyph unicode="$" horiz-adv-x="550" d="M205 704v54h100v-54q74 -13 127 -55.5t62 -116.5l-99 -10q-7 31 -32.5 53t-57.5 27v-204q89 -3 148 -50t59 -138q0 -97 -56.5 -144t-150.5 -65v-61h-100v61q-77 13 -136 61t-67 123v7l101 1l1 -1q7 -31 37 -58.5t64 -36.5v211q-58 -6 -106 22.5t-71.5 74.5t-21 103.5 t38.5 106.5q56 73 160 89zM305 297v-200q62 -2 92 50.5t4.5 103.5t-96.5 46zM124 557h-1q-31 -49 -4 -98.5t86 -48.5v193q-57 -14 -81 -46z" />
<glyph unicode="&#x26;" horiz-adv-x="600" d="M474 560l-91 -28q-33 74 -117 74q-52 0 -90 -27t-39 -73q0 -42 25 -70.5t81 -28.5h325v-100h-70v-117q0 -86 -62.5 -140t-173.5 -56q-129 -2 -197 65.5t-59 160.5q6 43 32 82t74 58q-75 44 -75 145q0 94 68.5 147.5t160.5 53.5q153 0 208 -146zM242 307 q-65 2 -98.5 -26.5t-37.5 -70.5q-3 -46 37.5 -82t117.5 -36q63 0 100 28t37 74v113h-156z" />
<glyph unicode="'" horiz-adv-x="141" d="M5 701h96v-248h-96v248z" />
<glyph unicode="," horiz-adv-x="214" d="M96 -79h-101l73 184h117z" />
<glyph unicode="." horiz-adv-x="156" d="M57 120q28 0 45.5 -17t17.5 -45q0 -24 -18 -42.5t-45 -18.5q-24 0 -42 19t-18 42q0 27 17.5 44.5t42.5 17.5z" />
<glyph unicode="0" horiz-adv-x="552" d="M253 574q-76 0 -118 -71t-42 -169t42 -168.5t118 -70.5t118 71t42 168q0 98 -42 169t-118 71zM253 -2q-82 0 -141.5 50t-87 124.5t-27.5 161.5t27.5 162t87 125t141.5 50q120 0 188 -100.5t68 -236.5q0 -87 -27.5 -161.5t-87.5 -124.5t-141 -50z" />
<glyph unicode="1" horiz-adv-x="269" d="M217 0h-100v510l-94 -128l-76 55l189 266h81v-703z" />
<glyph unicode="2" horiz-adv-x="531" d="M104 469l-101 8q14 100 77 163.5t167 63.5q76 0 135 -31t86.5 -80.5t32.5 -105.5t-23 -112t-83 -94q-48 -39 -111 -90t-115 -94h321v-97h-491v78l329 280h-1q54 39 65 97.5t-28.5 103t-116.5 44.5q-62 0 -98 -36t-45 -98z" />
<glyph unicode="3" horiz-adv-x="519" d="M153 304v95h105q48 0 72 32t24 72q0 49 -39.5 75.5t-93.5 26.5q-42 0 -76.5 -22.5t-43.5 -61.5l-91 22q18 76 77.5 117t133.5 41q94 0 163 -51.5t70 -146.5q0 -103 -64 -146q92 -54 90 -163q-1 -82 -67.5 -142.5t-185.5 -60.5q-105 0 -164.5 52t-72.5 131l94 17 q7 -45 44 -75.5t99 -30.5q78 0 120 36t38 83q-4 38 -34.5 69t-92.5 31h-105z" />
<glyph unicode="4" horiz-adv-x="529" d="M-13 229l371 471h78v-444h57v-98h-57v-158h-100v158h-349v71zM119 254h219v271z" />
<glyph unicode="5" horiz-adv-x="534" d="M-1 159l93 38q47 -95 146 -95q74 0 114.5 42t39.5 100q0 38 -21.5 72t-59.5 51q-122 50 -246 -23l-57 26v333h446v-98h-344v-140q126 41 237 -4q70 -29 108 -87.5t39 -129.5q1 -99 -67 -171.5t-189 -72.5q-176 0 -239 159z" />
<glyph unicode="6" horiz-adv-x="542" d="M248 380q-73 0 -113.5 -41.5t-40.5 -98.5t40.5 -97.5t113.5 -40.5q74 0 114 40.5t40 97.5t-40 98.5t-114 41.5zM36 380l228 320h124l-171 -241q38 14 86 11t84 -23q56 -32 86 -88t30 -119q0 -98 -67.5 -169t-187.5 -71t-187.5 71.5t-67.5 168.5q0 75 43 140z" />
<glyph unicode="7" horiz-adv-x="507" d="M-7 700h493v-69l-345 -631h-116l328 601h-360v99z" />
<glyph unicode="8" horiz-adv-x="533" d="M246 87q72 0 112.5 35t40.5 80t-40 78.5t-113 33.5q-71 0 -111.5 -33.5t-40.5 -78.5t40.5 -80t111.5 -35zM246 617q-48 0 -85.5 -29t-37.5 -77q0 -40 32.5 -72t90.5 -32q59 0 91.5 32t32.5 73q0 47 -38 76t-86 29zM470 509q0 -41 -23.5 -83t-64.5 -60q58 -22 88 -67 t30 -96q0 -85 -67 -147.5t-187 -62.5t-186 60.5t-66 149.5q0 48 32 93t89 70q-51 21 -71.5 62t-20.5 82q1 93 68 144.5t155 51.5q106 0 165 -58.5t59 -138.5z" />
<glyph unicode="9" horiz-adv-x="548" d="M255 323q74 0 114.5 42t40.5 99q0 58 -40.5 99t-114.5 41t-114.5 -41t-40.5 -99q0 -57 40.5 -99t114.5 -42zM470 323l-230 -323h-125l172 244q-39 -15 -87.5 -12t-83.5 23q-57 33 -87.5 89.5t-30.5 119.5q0 99 68 171t189 72t189.5 -72t68.5 -171q0 -74 -43 -141z" />
<glyph unicode=":" horiz-adv-x="149" d="M53 112q26 0 42.5 -16t16.5 -42q0 -22 -17 -39.5t-42 -17.5q-23 0 -39.5 17.5t-16.5 39.5q0 26 16 42t40 16zM53 385q26 0 42.5 -16t16.5 -42q0 -23 -17 -40t-42 -17q-23 0 -39.5 17.5t-16.5 39.5q0 26 16 42t40 16z" />
<glyph unicode=";" horiz-adv-x="140" d="M52 385q26 0 42.5 -16t16.5 -42q0 -23 -17 -40t-42 -17q-23 0 -39.5 17.5t-16.5 39.5q0 26 16 42t40 16zM-56 -98h101l89 184h-117z" />
<glyph unicode="?" horiz-adv-x="510" d="M266 227l1 -81h-102v82q0 32 8.5 55.5t30 41.5t35.5 26.5t47 25.5h-1q25 14 37.5 22.5t25.5 29t14 48.5q2 50 -38 87t-109 37q-101 0 -153 -107l-82 47q35 74 94.5 119t140.5 45q117 0 186.5 -68t67.5 -162q-1 -34 -11 -62.5t-20.5 -45t-35 -35t-35 -24.5t-39.5 -22 q-19 -10 -24 -13t-17.5 -11.5t-16.5 -16.5t-4 -18zM215 116q29 0 47.5 -18.5t18.5 -47.5q0 -24 -19 -44t-47 -20q-26 0 -44.5 20t-18.5 44q0 29 18 47.5t45 18.5z" />
<glyph unicode="A" d="M276 548l-88 -247h174zM485 0l-84 206h-251q-58 -138 -84 -206h-109l281 709h74l281 -709h-108z" />
<glyph unicode="B" horiz-adv-x="570" d="M116 603v-182h189q31 0 53 18.5t27 45.5t0.5 54t-26 45.5t-52.5 18.5h-191zM16 699h291q63 0 106 -31.5t64 -83.5q23 -50 11 -106.5t-62 -92.5q56 -24 82.5 -71.5t26.5 -102.5q0 -85 -54 -148t-149 -63h-316v699zM116 321v-223h216q48 0 75 33.5t27 78.5t-27 78t-75 33 h-216z" />
<glyph unicode="C" horiz-adv-x="710" d="M3 348q0 144 100 251q101 104 242 104q120 0 208 -69.5t118 -188.5h-100q-27 77 -87 117.5t-139 40.5q-100 0 -172 -75t-72 -180q0 -103 72 -178t172 -75q80 0 142.5 44t89.5 123h99q-30 -120 -120 -193.5t-211 -73.5q-143 0 -242 104q-100 107 -100 249z" />
<glyph unicode="D" horiz-adv-x="651" d="M118 101h150q115 0 179.5 73.5t64.5 174.5t-64.5 175t-179.5 74h-150v-497zM17 699h251q83 0 150 -30t108.5 -79.5t63.5 -111.5t22 -129t-22 -128.5t-63.5 -111.5t-108.5 -79.5t-150 -29.5h-251v699z" />
<glyph unicode="E" horiz-adv-x="468" d="M114 299v-198h325v-101h-427v699h426v-101h-324v-197h317v-102h-317z" />
<glyph unicode="F" horiz-adv-x="449" d="M113 299v-299h-101v699h417v-101h-316v-197h280v-102h-280z" />
<glyph unicode="G" horiz-adv-x="725" d="M680 449h-108q-19 78 -84 116t-141 38q-103 0 -173 -72t-70 -182t70 -183.5t173 -73.5q70 0 130 35t90 107h-259v101h377q-8 -92 -19 -121v1q-35 -97 -127.5 -158.5t-191.5 -61.5q-148 0 -246 100t-98 254t99 254.5t245 100.5q53 0 104 -14t98.5 -43t82.5 -80t48 -118z " />
<glyph unicode="H" horiz-adv-x="563" d="M116 699v-295h296v295h102v-699h-102v304h-296v-304h-101v699h101z" />
<glyph unicode="I" horiz-adv-x="389" d="M355 699v-100h-130v-498h130v-101h-361v101h130v498h-130v100h361z" />
<glyph unicode="J" horiz-adv-x="404" d="M362 699v-396q0 -149 -107.5 -226t-278.5 -77v101q126 0 205.5 51t79.5 151v296h-189v100h290z" />
<glyph unicode="K" horiz-adv-x="525" d="M17 699h100v-699h-100v699zM136 324v51l244 324h127l-267 -347l295 -352h-132z" />
<glyph unicode="L" horiz-adv-x="470" d="M114 699v-598h329v-101h-430v699h101z" />
<glyph unicode="M" horiz-adv-x="707" d="M120 493v-493h-101v700h82l231 -340l231 340h80v-700h-100v493l-183 -272h-57z" />
<glyph unicode="N" d="M117 0h-101v701l78 -1l341 -493v493h100v-700h-80l-338 489v-489z" />
<glyph unicode="O" horiz-adv-x="758" d="M609 350q0 105 -74 181q-76 76 -181 76t-179 -76q-75 -75 -75 -181t75 -181q74 -76 179 -76t181 76q74 76 74 181zM-2 350q0 146 104 253q104 106 252 106q147 0 253 -106q104 -107 104 -253t-104 -253q-104 -106 -253 -106t-252 106q-104 107 -104 253z" />
<glyph unicode="P" horiz-adv-x="527" d="M14 700h256q107 0 167 -69.5t60 -164.5t-60 -164t-167 -69h-154v-233h-102v700zM116 333h154q60 0 93.5 39t33.5 93t-33.5 93.5t-93.5 39.5h-154v-265z" />
<glyph unicode="Q" horiz-adv-x="766" d="M616 350q0 104 -75 181q-74 76 -180 76q-104 0 -180 -76q-75 -77 -75 -181q0 -105 75 -182q65 -65 153.5 -76t168.5 37l-194 173h140l119 -108q48 65 48 156zM758 22v-22h-110l-66 59q-117 -77 -253.5 -65.5t-219.5 103.5q-104 114 -104 253q0 146 104 253 q104 106 252 106q147 0 253 -106q104 -107 104 -253q0 -120 -76 -219z" />
<glyph unicode="R" horiz-adv-x="527" d="M154 307v48h118q60 0 93.5 36t33.5 86q0 49 -33.5 85t-93.5 36h-155v-598h-100v700h255q108 0 168 -66.5t60 -156.5q0 -78 -47.5 -138.5t-133.5 -75.5l221 -263h-131z" />
<glyph unicode="S" horiz-adv-x="554" d="M498 523l-100 -4q-10 44 -51.5 67t-91.5 22q-87 -2 -127 -53q-20 -26 -17 -65q1 -21 12 -36t24 -24t37 -15t40.5 -8t45.5 -5q43 -5 75.5 -13t70 -23.5t62 -44t34.5 -68.5q5 -25 5 -46q0 -96 -79 -154.5t-181 -58.5q-56 0 -110 20.5t-95 65t-47 103.5l-1 19l102 2l1 -15v4 q5 -46 51 -72.5t100 -26.5q61 0 109 31.5t48 82.5q0 10 -3 24q-4 19 -18 32t-38.5 20t-44.5 10.5t-53 6.5q-39 4 -67.5 9t-63 17.5t-57.5 31t-40 50t-20 73.5v-1q-6 75 38 133q34 44 91.5 68.5t120.5 24.5q89 0 157 -47t81 -137z" />
<glyph unicode="T" horiz-adv-x="534" d="M293 -3h-101v601h-212v102h524v-102h-211v-601z" />
<glyph unicode="U" horiz-adv-x="589" d="M277 -7q-64 0 -121.5 23.5t-97.5 74.5t-40 119v489h102v-490q0 -54 48 -84.5t109 -30.5q60 0 108 31t48 85v489h102v-490q0 -67 -40 -118t-97.5 -74.5t-120.5 -23.5z" />
<glyph unicode="V" horiz-adv-x="602" d="M277 176l210 523h108l-281 -701h-74l-281 701h110z" />
<glyph unicode="W" horiz-adv-x="851" d="M518 -6l-121 339q-14 -39 -38.5 -109t-44.5 -126.5t-36 -103.5h-75l-233 705h105l167 -505l115 327h81l114 -326q25 77 83 248.5t85 255.5h106l-233 -705h-75z" />
<glyph unicode="X" horiz-adv-x="601" d="M-42 699h124l190 -262l191 262h123l-253 -351q216 -296 253 -348h-123l-191 262l-190 -262h-124l253 348q-48 66 -253 351z" />
<glyph unicode="Y" horiz-adv-x="567" d="M-50 699h119l191 -307l191 307h120l-260 -414v-285h-102v285z" />
<glyph unicode="Z" horiz-adv-x="533" d="M1 607v92h474l34 -64l-396 -545h390v-90h-491l-41 56l404 551h-374z" />
<glyph unicode="`" horiz-adv-x="246" d="M202 610h-95l-113 107h136z" />
<glyph unicode="a" d="M276 548l-88 -247h174zM485 0l-84 206h-251q-58 -138 -84 -206h-109l281 709h74l281 -709h-108z" />
<glyph unicode="b" horiz-adv-x="562" d="M116 603v-182h189q31 0 53 18.5t27 45.5t0.5 54t-26 45.5t-52.5 18.5h-191zM16 699h291q63 0 106 -31.5t64 -83.5q23 -50 11 -106.5t-62 -92.5q56 -24 82.5 -71.5t26.5 -102.5q0 -85 -54 -148t-149 -63h-316v699zM116 321v-223h216q48 0 75 33.5t27 78.5t-27 78t-75 33 h-216z" />
<glyph unicode="c" horiz-adv-x="710" d="M3 348q0 144 100 251q101 104 242 104q120 0 208 -69.5t118 -188.5h-100q-27 77 -87 117.5t-139 40.5q-100 0 -172 -75t-72 -180q0 -103 72 -178t172 -75q80 0 142.5 44t89.5 123h99q-30 -120 -120 -193.5t-211 -73.5q-143 0 -242 104q-100 107 -100 249z" />
<glyph unicode="d" horiz-adv-x="651" d="M118 101h150q115 0 179.5 73.5t64.5 174.5t-64.5 175t-179.5 74h-150v-497zM17 699h251q83 0 150 -30t108.5 -79.5t63.5 -111.5t22 -129t-22 -128.5t-63.5 -111.5t-108.5 -79.5t-150 -29.5h-251v699z" />
<glyph unicode="e" horiz-adv-x="468" d="M114 299v-198h325v-101h-427v699h426v-101h-324v-197h317v-102h-317z" />
<glyph unicode="f" horiz-adv-x="449" d="M113 299v-299h-101v699h417v-101h-316v-197h280v-102h-280z" />
<glyph unicode="g" horiz-adv-x="725" d="M680 449h-108q-19 78 -84 116t-141 38q-103 0 -173 -72t-70 -182t70 -183.5t173 -73.5q70 0 130 35t90 107h-259v101h377q-8 -92 -19 -121v1q-35 -97 -127.5 -158.5t-191.5 -61.5q-148 0 -246 100t-98 254t99 254.5t245 100.5q53 0 104 -14t98.5 -43t82.5 -80t48 -118z " />
<glyph unicode="h" horiz-adv-x="563" d="M116 699v-295h296v295h102v-699h-102v304h-296v-304h-101v699h101z" />
<glyph unicode="i" horiz-adv-x="374" d="M345 699v-100h-130v-498h130v-101h-361v101h130v498h-130v100h361z" />
<glyph unicode="j" horiz-adv-x="412" d="M370 699v-396q0 -150 -105 -226.5t-275 -76.5v95q124 0 201.5 53.5t77.5 154.5v296h-189v100h290z" />
<glyph unicode="k" horiz-adv-x="525" d="M17 699h100v-699h-100v699zM136 324v51l244 324h127l-267 -347l295 -352h-132z" />
<glyph unicode="l" horiz-adv-x="478" d="M122 699v-598h329v-101h-430v699h101z" />
<glyph unicode="m" horiz-adv-x="707" d="M120 493v-493h-101v700h82l231 -340l231 340h80v-700h-100v493l-183 -272h-57z" />
<glyph unicode="n" d="M117 0h-101v701l78 -1l341 -493v493h100v-700h-80l-338 489v-489z" />
<glyph unicode="o" horiz-adv-x="758" d="M609 350q0 105 -74 181q-76 76 -181 76t-179 -76q-75 -75 -75 -181t75 -181q74 -76 179 -76t181 76q74 76 74 181zM-2 350q0 146 104 253q104 106 252 106q147 0 253 -106q104 -107 104 -253t-104 -253q-104 -106 -253 -106t-252 106q-104 107 -104 253z" />
<glyph unicode="p" horiz-adv-x="533" d="M14 700h256q107 0 167 -69.5t60 -164.5t-60 -164t-167 -69h-154v-233h-102v700zM116 333h154q60 0 93.5 39t33.5 93t-33.5 93.5t-93.5 39.5h-154v-265z" />
<glyph unicode="q" horiz-adv-x="774" d="M616 350q0 104 -75 181q-74 76 -180 76q-104 0 -180 -76q-75 -77 -75 -181q0 -105 75 -182q65 -65 153.5 -76t168.5 37l-194 173h140l119 -108q48 65 48 156zM758 22v-22h-110l-66 59q-117 -77 -253.5 -65.5t-219.5 103.5q-104 114 -104 253q0 146 104 253 q104 106 252 106q147 0 253 -106q104 -107 104 -253q0 -120 -76 -219z" />
<glyph unicode="r" horiz-adv-x="531" d="M154 307v48h118q60 0 93.5 36t33.5 86q0 49 -33.5 85t-93.5 36h-155v-598h-100v700h255q108 0 168 -66.5t60 -156.5q0 -78 -47.5 -138.5t-133.5 -75.5l221 -263h-131z" />
<glyph unicode="s" horiz-adv-x="554" d="M498 523l-100 -4q-10 44 -51.5 67t-91.5 22q-87 -2 -127 -53q-20 -26 -17 -65q1 -21 12 -36t24 -24t37 -15t40.5 -8t45.5 -5q43 -5 75.5 -13t70 -23.5t62 -44t34.5 -68.5q5 -25 5 -46q0 -96 -79 -154.5t-181 -58.5q-56 0 -110 20.5t-95 65t-47 103.5l-1 19l102 2l1 -15v4 q5 -46 51 -72.5t100 -26.5q61 0 109 31.5t48 82.5q0 10 -3 24q-4 19 -18 32t-38.5 20t-44.5 10.5t-53 6.5q-39 4 -67.5 9t-63 17.5t-57.5 31t-40 50t-20 73.5v-1q-6 75 38 133q34 44 91.5 68.5t120.5 24.5q89 0 157 -47t81 -137z" />
<glyph unicode="t" horiz-adv-x="534" d="M293 -3h-101v609h-212v94h524v-94h-211v-609z" />
<glyph unicode="u" horiz-adv-x="589" d="M277 -7q-64 0 -121.5 23.5t-97.5 74.5t-40 119v489h102v-490q0 -54 48 -84.5t109 -30.5q60 0 108 31t48 85v489h102v-490q0 -67 -40 -118t-97.5 -74.5t-120.5 -23.5z" />
<glyph unicode="v" horiz-adv-x="602" d="M277 176l210 523h108l-281 -701h-74l-281 701h110z" />
<glyph unicode="w" horiz-adv-x="851" d="M520 -4l-123 337q-17 -48 -59 -163.5t-62 -173.5h-71l-235 703h105l167 -505l115 327h81l114 -326q25 77 83 248.5t85 255.5h106l-235 -703h-71z" />
<glyph unicode="x" horiz-adv-x="601" d="M-42 699h124l190 -262l191 262h123l-253 -351q216 -296 253 -348h-123l-191 262l-190 -262h-124l253 348q-48 66 -253 351z" />
<glyph unicode="y" horiz-adv-x="567" d="M-50 699h119l191 -307l191 307h120l-260 -414v-285h-102v285z" />
<glyph unicode="z" horiz-adv-x="533" d="M1 607v92h474l34 -64l-396 -545h390v-90h-491l-41 56l404 551h-374z" />
<glyph unicode="&#xa1;" horiz-adv-x="202" d="M31 -6h105v546h-105v-546zM86 579q-29 0 -46.5 17.5t-17.5 45.5q0 23 18 40.5t46 17.5q24 0 42 -17.5t18 -40.5q0 -28 -17.5 -45.5t-42.5 -17.5z" />
<glyph unicode="&#xa5;" horiz-adv-x="567" d="M98 203v73h114l-13 25h-101v69h58l-206 329h119l191 -307l191 307h120l-207 -329h53v-69h-96l-14 -25h110v-73h-106v-203h-102v203h-111z" />
<glyph unicode="&#xa8;" horiz-adv-x="395" d="M90 737q26 0 42.5 -16.5t16.5 -42.5q0 -22 -17 -39t-42 -17q-23 0 -39.5 17t-16.5 39q0 26 16 42.5t40 16.5zM277 737q26 0 42 -16.5t16 -42.5q0 -21 -17.5 -38.5t-40.5 -17.5t-40 17t-17 39q0 26 16.5 42.5t40.5 16.5z" />
<glyph unicode="&#xb4;" horiz-adv-x="246" d="M111 610h-95l72 107h136z" />
<glyph unicode="&#xb7;" horiz-adv-x="165" d="M73 374q26 0 42.5 -16t16.5 -42q0 -23 -17 -40t-42 -17q-23 0 -39.5 17.5t-16.5 39.5q0 26 16 42t40 16z" />
<glyph unicode="&#xbf;" horiz-adv-x="514" d="M205 547l1 -81q0 -13 -11 -25t-19 -16.5t-32 -17.5q-29 -16 -39.5 -22t-35 -24.5t-35 -35t-20.5 -45t-11 -62.5q-2 -94 67.5 -162t186.5 -68q81 0 140.5 45t94.5 119l-82 47q-52 -107 -153 -107q-69 0 -109 37t-38 87q1 28 14 48.5t25.5 29t37.5 22.5h-1q33 17 47 25.5 t35.5 26.5t30 41.5t8.5 55.5v82h-102zM257 577q-29 0 -47.5 18.5t-18.5 47.5q0 24 19 44t47 20q26 0 44.5 -20t18.5 -44q0 -29 -18 -47.5t-45 -18.5z" />
<glyph unicode="&#xc0;" d="M276 548l-88 -247h174zM485 0l-84 206h-251q-58 -138 -84 -206h-109l281 709h74l281 -709h-108zM321 736h-95l-113 107h136z" />
<glyph unicode="&#xc1;" d="M276 548l-88 -247h174zM485 0l-84 206h-251q-58 -138 -84 -206h-109l281 709h74l281 -709h-108zM320 735h-95l72 107h136z" />
<glyph unicode="&#xc2;" d="M276 548l-88 -247h174zM485 0l-84 206h-251q-58 -138 -84 -206h-109l281 709h74l281 -709h-108zM226 729h-110l113 100h86l110 -100h-108l-48 39z" />
<glyph unicode="&#xc3;" d="M202 731l-58 27q30 69 73 75q16 1 33.5 -6t29.5 -14.5t23.5 -11.5t20 3t14.5 29l64 -32q-25 -61 -65 -72q-16 -5 -37 3t-37 18.5t-33 7.5t-28 -27zM276 548l-88 -247h174zM485 0l-84 206h-251q-58 -138 -84 -206h-109l281 709h74l281 -709h-108z" />
<glyph unicode="&#xc4;" d="M276 548l-88 -247h174zM485 0l-84 206h-251q-58 -138 -84 -206h-109l281 709h74l281 -709h-108zM186 821q26 0 41.5 -13t15.5 -35q0 -18 -16 -32t-41 -14q-23 0 -39 14t-16 32q0 21 15.5 34.5t39.5 13.5zM368 821q25 0 40.5 -13t15.5 -35q0 -18 -17 -32t-39 -14 q-23 0 -39.5 14t-16.5 32q0 21 16 34.5t40 13.5z" />
<glyph unicode="&#xc5;" horiz-adv-x="594" d="M194 764q0 35 24.5 60t58.5 25q35 0 60 -25.5t25 -59.5q0 -46 -38 -71l275 -693h-108l-84 206h-251q-58 -138 -84 -206h-109l273 690q-42 25 -42 74zM282 548l-88 -247h174zM310 764q0 13 -9.5 23t-23.5 10q-12 0 -21.5 -10t-9.5 -23q0 -12 9.5 -21.5t21.5 -9.5 q15 0 24 9.5t9 21.5z" />
<glyph unicode="&#xc6;" horiz-adv-x="840" d="M471 249v-148h326v-101h-427v249h-148q-87 -151 -142 -249h-114l392 700h437v-101h-324v-249h317v-101h-317zM278 350h92l10 222z" />
<glyph unicode="&#xc7;" horiz-adv-x="699" d="M3 348q0 144 100 251q101 104 242 104q120 0 208 -69.5t118 -188.5h-100q-27 77 -87 117.5t-139 40.5q-100 0 -172 -75t-72 -180q0 -103 72 -178t172 -75q80 0 142.5 44t89.5 123h99q-29 -114 -111.5 -186.5t-195.5 -79.5l-10 -27q50 -3 76 -34.5t15 -73t-58 -69.5 q-23 -14 -53 -16.5t-58 5.5t-50 29t-28 50l58 18q36 -46 77 -35q27 7 32 30q7 28 -34 42q-27 9 -69 7l33 76q-116 15 -197 101q-100 107 -100 249z" />
<glyph unicode="&#xc8;" horiz-adv-x="468" d="M114 101v198h317v102h-317v197h324v101h-426v-699h427v101h-325zM304 732h-95l-113 107h136z" />
<glyph unicode="&#xc9;" horiz-adv-x="468" d="M114 299v-198h325v-101h-427v699h426v-101h-324v-197h317v-102h-317zM266 730h-95l72 107h136z" />
<glyph unicode="&#xca;" horiz-adv-x="468" d="M114 299v-198h325v-101h-427v699h426v-101h-324v-197h317v-102h-317zM190 733h-110l113 100h86l110 -100h-108l-48 39z" />
<glyph unicode="&#xcb;" horiz-adv-x="468" d="M114 101v198h317v102h-317v197h324v101h-426v-699h427v101h-325zM147 830q26 0 42 -15t16 -38q0 -19 -16.5 -34t-41.5 -15q-22 0 -38.5 15.5t-16.5 33.5q0 23 16 38t39 15zM330 830q26 0 41.5 -14.5t15.5 -38.5q0 -18 -17 -33.5t-40 -15.5t-39 15t-16 34q0 23 16 38 t39 15z" />
<glyph unicode="&#xcc;" horiz-adv-x="379" d="M350 599v100h-361v-100h130v-498h-130v-101h361v101h-130v498h130zM223 728h-95l-113 107h136z" />
<glyph unicode="&#xcd;" horiz-adv-x="374" d="M345 699v-100h-130v-498h130v-101h-361v101h130v498h-130v100h361zM207 731h-95l72 107h136z" />
<glyph unicode="&#xce;" horiz-adv-x="374" d="M345 699v-100h-130v-498h130v-101h-361v101h130v498h-130v100h361zM121 729h-110l113 100h86l110 -100h-108l-48 39z" />
<glyph unicode="&#xcf;" horiz-adv-x="374" d="M345 599v100h-361v-100h130v-498h-130v-101h361v101h-130v498h130zM77 828q25 0 41 -14.5t16 -37.5q0 -19 -16.5 -34t-40.5 -15q-23 0 -39 15t-16 34q0 23 15.5 37.5t39.5 14.5zM259 828q25 0 40.5 -14.5t15.5 -37.5q0 -18 -17 -33.5t-39 -15.5q-23 0 -39.5 15t-16.5 34 q0 23 16 37.5t40 14.5z" />
<glyph unicode="&#xd1;" d="M217 726l-60 25q16 40 31 59.5t36 23.5q19 2 42 -7.5t37 -18.5t26.5 -4.5t18.5 31.5l66 -29q-25 -67 -61 -81q-16 -5 -38 3.5t-38 19t-33 7t-27 -28.5zM117 0h-101v701l78 -1l341 -493v493h100v-700h-80l-338 489v-489z" />
<glyph unicode="&#xd2;" horiz-adv-x="758" d="M609 350q0 -105 -74 -181q-76 -76 -181 -76t-179 76q-75 75 -75 181t75 181q74 76 179 76t181 -76q74 -76 74 -181zM-2 350q0 -146 104 -253q103 -106 252 -106t253 106q104 107 104 253t-104 253q-106 106 -253 106q-148 0 -252 -106q-104 -107 -104 -253zM416 735h-95 l-113 107h136z" />
<glyph unicode="&#xd3;" horiz-adv-x="758" d="M609 350q0 105 -74 181q-76 76 -181 76t-179 -76q-75 -75 -75 -181t75 -181q74 -76 179 -76t181 76q74 76 74 181zM-2 350q0 146 104 253q104 106 252 106q147 0 253 -106q104 -107 104 -253t-104 -253q-104 -106 -253 -106t-252 106q-104 107 -104 253zM391 734h-95 l72 107h136z" />
<glyph unicode="&#xd4;" horiz-adv-x="758" d="M609 350q0 105 -74 181q-76 76 -181 76t-179 -76q-75 -75 -75 -181t75 -181q74 -76 179 -76t181 76q74 76 74 181zM-2 350q0 146 104 253q104 106 252 106q147 0 253 -106q104 -107 104 -253t-104 -253q-104 -106 -253 -106t-252 106q-104 107 -104 253zM314 732h-110 l113 100h86l110 -100h-108l-48 39z" />
<glyph unicode="&#xd5;" horiz-adv-x="758" d="M285 735l-61 22q31 70 69 75q19 2 42 -6.5t37 -16.5t26.5 -4t19.5 28l66 -24q-29 -64 -63 -75q-16 -5 -38 2.5t-38.5 17t-33 7t-26.5 -25.5zM609 350q0 105 -74 181q-76 76 -181 76t-179 -76q-75 -75 -75 -181t75 -181q74 -76 179 -76t181 76q74 76 74 181zM-2 350 q0 146 104 253q104 106 252 106q147 0 253 -106q104 -107 104 -253t-104 -253q-104 -106 -253 -106t-252 106q-104 107 -104 253z" />
<glyph unicode="&#xd6;" horiz-adv-x="758" d="M609 350q0 -105 -74 -181q-76 -76 -181 -76t-179 76q-75 75 -75 181t75 181q74 76 179 76t181 -76q74 -76 74 -181zM-2 350q0 -146 104 -253q103 -106 252 -106t253 106q104 107 104 253t-104 253q-106 106 -253 106q-148 0 -252 -106q-104 -107 -104 -253zM266 827 q26 0 42 -14t16 -36q0 -19 -16.5 -33.5t-41.5 -14.5q-23 0 -39 14.5t-16 33.5q0 22 15.5 36t39.5 14zM450 827q26 0 42 -13.5t16 -36.5q0 -18 -17.5 -33t-40.5 -15t-39.5 15t-16.5 33q0 22 16 36t40 14z" />
<glyph unicode="&#xd8;" horiz-adv-x="760" d="M4 350q0 146 104 253q104 106 252 106q85 0 151 -33l33 51l112 1l-66 -106q127 -110 127 -272q0 -146 -104 -253q-103 -106 -253 -106q-79 0 -152 33l-42 -67h-111l76 122l-23 19v-1q-104 107 -104 253zM615 350q0 108 -80 188q-26 -41 -273 -425q41 -20 98 -20 q105 0 181 76q74 76 74 181zM360 607q-105 0 -179 -76q-75 -77 -75 -181t75 -181v-1l3 -2l2 -2l270 426q-45 17 -96 17z" />
<glyph unicode="&#xd9;" horiz-adv-x="589" d="M277 -7q63 0 120.5 23.5t97.5 74.5t40 118v490h-102v-489q0 -54 -48 -85t-108 -31q-61 0 -109 30.5t-48 84.5v490h-102v-489q0 -68 40 -119t97.5 -74.5t121.5 -23.5zM356 727h-95l-113 107h136z" />
<glyph unicode="&#xda;" horiz-adv-x="589" d="M277 -7q-64 0 -121.5 23.5t-97.5 74.5t-40 119v489h102v-490q0 -54 48 -84.5t109 -30.5q60 0 108 31t48 85v489h102v-490q0 -67 -40 -118t-97.5 -74.5t-120.5 -23.5zM304 729h-95l72 107h136z" />
<glyph unicode="&#xdb;" horiz-adv-x="589" d="M277 -7q-64 0 -121.5 23.5t-97.5 74.5t-40 119v489h102v-490q0 -54 48 -84.5t109 -30.5q60 0 108 31t48 85v489h102v-490q0 -67 -40 -118t-97.5 -74.5t-120.5 -23.5zM229 729h-110l113 100h86l110 -100h-108l-48 39z" />
<glyph unicode="&#xdc;" horiz-adv-x="589" d="M277 -7q63 0 120.5 23.5t97.5 74.5t40 118v490h-102v-489q0 -54 -48 -85t-108 -31q-61 0 -109 30.5t-48 84.5v490h-102v-489q0 -68 40 -119t97.5 -74.5t121.5 -23.5zM186 830q26 0 42.5 -14.5t16.5 -38.5q0 -20 -17 -35t-42 -15q-22 0 -38.5 15.5t-16.5 34.5q0 23 16 38 t39 15zM372 830q26 0 42 -14.5t16 -38.5q0 -19 -17.5 -34.5t-40.5 -15.5t-39.5 15.5t-16.5 34.5q0 24 16 38.5t40 14.5z" />
<glyph unicode="&#xdd;" horiz-adv-x="567" d="M-50 699h119l191 -307l191 307h120l-260 -414v-285h-102v285zM294 730h-95l72 107h136z" />
<glyph unicode="&#xe0;" d="M276 548l-88 -247h174zM485 0l-84 206h-251q-58 -138 -84 -206h-109l281 709h74l281 -709h-108zM321 736h-95l-113 107h136z" />
<glyph unicode="&#xe1;" d="M276 548l-88 -247h174zM485 0l-84 206h-251q-58 -138 -84 -206h-109l281 709h74l281 -709h-108zM320 735h-95l72 107h136z" />
<glyph unicode="&#xe2;" d="M276 548l-88 -247h174zM485 0l-84 206h-251q-58 -138 -84 -206h-109l281 709h74l281 -709h-108zM226 729h-110l113 100h86l110 -100h-108l-48 39z" />
<glyph unicode="&#xe3;" d="M202 731l-58 27q30 69 73 75q16 1 33.5 -6t29.5 -14.5t23.5 -11.5t20 3t14.5 29l64 -32q-25 -61 -65 -72q-16 -5 -37 3t-37 18.5t-33 7.5t-28 -27zM276 548l-88 -247h174zM485 0l-84 206h-251q-58 -138 -84 -206h-109l281 709h74l281 -709h-108z" />
<glyph unicode="&#xe4;" d="M276 548l-88 -247h174zM485 0l-84 206h-251q-58 -138 -84 -206h-109l281 709h74l281 -709h-108zM186 821q26 0 41.5 -13t15.5 -35q0 -18 -16 -32t-41 -14q-23 0 -39 14t-16 32q0 21 15.5 34.5t39.5 13.5zM368 821q25 0 40.5 -13t15.5 -35q0 -18 -17 -32t-39 -14 q-23 0 -39.5 14t-16.5 32q0 21 16 34.5t40 13.5z" />
<glyph unicode="&#xe5;" horiz-adv-x="594" d="M194 764q0 35 24.5 60t58.5 25q35 0 60 -25.5t25 -59.5q0 -46 -38 -71l275 -693h-108l-84 206h-251q-58 -138 -84 -206h-109l273 690q-42 25 -42 74zM282 548l-88 -247h174zM310 764q0 13 -9.5 23t-23.5 10q-12 0 -21.5 -10t-9.5 -23q0 -12 9.5 -21.5t21.5 -9.5 q15 0 24 9.5t9 21.5z" />
<glyph unicode="&#xe6;" horiz-adv-x="840" d="M471 249v-148h326v-101h-427v249h-148q-87 -151 -142 -249h-114l392 700h437v-101h-324v-249h317v-101h-317zM278 350h92l10 222z" />
<glyph unicode="&#xe7;" horiz-adv-x="699" d="M3 348q0 144 100 251q101 104 242 104q120 0 208 -69.5t118 -188.5h-100q-27 77 -87 117.5t-139 40.5q-100 0 -172 -75t-72 -180q0 -103 72 -178t172 -75q80 0 142.5 44t89.5 123h99q-29 -114 -111.5 -186.5t-195.5 -79.5l-10 -27q50 -3 76 -34.5t15 -73t-58 -69.5 q-23 -14 -53 -16.5t-58 5.5t-50 29t-28 50l58 18q36 -46 77 -35q27 7 32 30q7 28 -34 42q-27 9 -69 7l33 76q-116 15 -197 101q-100 107 -100 249z" />
<glyph unicode="&#xe8;" horiz-adv-x="468" d="M114 101v198h317v102h-317v197h324v101h-426v-699h427v101h-325zM304 732h-95l-113 107h136z" />
<glyph unicode="&#xe9;" horiz-adv-x="468" d="M114 299v-198h325v-101h-427v699h426v-101h-324v-197h317v-102h-317zM266 730h-95l72 107h136z" />
<glyph unicode="&#xea;" horiz-adv-x="468" d="M114 299v-198h325v-101h-427v699h426v-101h-324v-197h317v-102h-317zM190 733h-110l113 100h86l110 -100h-108l-48 39z" />
<glyph unicode="&#xeb;" horiz-adv-x="468" d="M114 101v198h317v102h-317v197h324v101h-426v-699h427v101h-325zM147 830q26 0 42 -15t16 -38q0 -19 -16.5 -34t-41.5 -15q-22 0 -38.5 15.5t-16.5 33.5q0 23 16 38t39 15zM330 830q26 0 41.5 -14.5t15.5 -38.5q0 -18 -17 -33.5t-40 -15.5t-39 15t-16 34q0 23 16 38 t39 15z" />
<glyph unicode="&#xec;" horiz-adv-x="379" d="M350 599v100h-361v-100h130v-498h-130v-101h361v101h-130v498h130zM223 728h-95l-113 107h136z" />
<glyph unicode="&#xed;" horiz-adv-x="374" d="M345 699v-100h-130v-498h130v-101h-361v101h130v498h-130v100h361zM207 731h-95l72 107h136z" />
<glyph unicode="&#xee;" horiz-adv-x="374" d="M345 699v-100h-130v-498h130v-101h-361v101h130v498h-130v100h361zM121 729h-110l113 100h86l110 -100h-108l-48 39z" />
<glyph unicode="&#xef;" horiz-adv-x="374" d="M345 599v100h-361v-100h130v-498h-130v-101h361v101h-130v498h130zM77 828q25 0 41 -14.5t16 -37.5q0 -19 -16.5 -34t-40.5 -15q-23 0 -39 15t-16 34q0 23 15.5 37.5t39.5 14.5zM259 828q25 0 40.5 -14.5t15.5 -37.5q0 -18 -17 -33.5t-39 -15.5q-23 0 -39.5 15t-16.5 34 q0 23 16 37.5t40 14.5z" />
<glyph unicode="&#xf1;" d="M217 726l-60 25q16 40 31 59.5t36 23.5q19 2 42 -7.5t37 -18.5t26.5 -4.5t18.5 31.5l66 -29q-25 -67 -61 -81q-16 -5 -38 3.5t-38 19t-33 7t-27 -28.5zM117 0h-101v701l78 -1l341 -493v493h100v-700h-80l-338 489v-489z" />
<glyph unicode="&#xf2;" horiz-adv-x="758" d="M609 350q0 -105 -74 -181q-76 -76 -181 -76t-179 76q-75 75 -75 181t75 181q74 76 179 76t181 -76q74 -76 74 -181zM-2 350q0 -146 104 -253q103 -106 252 -106t253 106q104 107 104 253t-104 253q-106 106 -253 106q-148 0 -252 -106q-104 -107 -104 -253zM416 735h-95 l-113 107h136z" />
<glyph unicode="&#xf3;" horiz-adv-x="758" d="M609 350q0 105 -74 181q-76 76 -181 76t-179 -76q-75 -75 -75 -181t75 -181q74 -76 179 -76t181 76q74 76 74 181zM-2 350q0 146 104 253q104 106 252 106q147 0 253 -106q104 -107 104 -253t-104 -253q-104 -106 -253 -106t-252 106q-104 107 -104 253zM391 734h-95 l72 107h136z" />
<glyph unicode="&#xf4;" horiz-adv-x="758" d="M609 350q0 105 -74 181q-76 76 -181 76t-179 -76q-75 -75 -75 -181t75 -181q74 -76 179 -76t181 76q74 76 74 181zM-2 350q0 146 104 253q104 106 252 106q147 0 253 -106q104 -107 104 -253t-104 -253q-104 -106 -253 -106t-252 106q-104 107 -104 253zM314 732h-110 l113 100h86l110 -100h-108l-48 39z" />
<glyph unicode="&#xf5;" horiz-adv-x="758" d="M285 735l-61 22q31 70 69 75q19 2 42 -6.5t37 -16.5t26.5 -4t19.5 28l66 -24q-29 -64 -63 -75q-16 -5 -38 2.5t-38.5 17t-33 7t-26.5 -25.5zM609 350q0 105 -74 181q-76 76 -181 76t-179 -76q-75 -75 -75 -181t75 -181q74 -76 179 -76t181 76q74 76 74 181zM-2 350 q0 146 104 253q104 106 252 106q147 0 253 -106q104 -107 104 -253t-104 -253q-104 -106 -253 -106t-252 106q-104 107 -104 253z" />
<glyph unicode="&#xf6;" horiz-adv-x="758" d="M609 350q0 -105 -74 -181q-76 -76 -181 -76t-179 76q-75 75 -75 181t75 181q74 76 179 76t181 -76q74 -76 74 -181zM-2 350q0 -146 104 -253q103 -106 252 -106t253 106q104 107 104 253t-104 253q-106 106 -253 106q-148 0 -252 -106q-104 -107 -104 -253zM266 827 q26 0 42 -14t16 -36q0 -19 -16.5 -33.5t-41.5 -14.5q-23 0 -39 14.5t-16 33.5q0 22 15.5 36t39.5 14zM450 827q26 0 42 -13.5t16 -36.5q0 -18 -17.5 -33t-40.5 -15t-39.5 15t-16.5 33q0 22 16 36t40 14z" />
<glyph unicode="&#xf8;" horiz-adv-x="760" d="M4 350q0 146 104 253q104 106 252 106q85 0 151 -33l33 51l112 1l-66 -106q127 -110 127 -272q0 -146 -104 -253q-103 -106 -253 -106q-79 0 -152 33l-42 -67h-111l76 122l-23 19v-1q-104 107 -104 253zM615 350q0 108 -80 188q-26 -41 -273 -425q41 -20 98 -20 q105 0 181 76q74 76 74 181zM360 607q-105 0 -179 -76q-75 -77 -75 -181t75 -181v-1l3 -2l2 -2l270 426q-45 17 -96 17z" />
<glyph unicode="&#xf9;" horiz-adv-x="589" d="M277 -7q63 0 120.5 23.5t97.5 74.5t40 118v490h-102v-489q0 -54 -48 -85t-108 -31q-61 0 -109 30.5t-48 84.5v490h-102v-489q0 -68 40 -119t97.5 -74.5t121.5 -23.5zM356 727h-95l-113 107h136z" />
<glyph unicode="&#xfa;" horiz-adv-x="589" d="M277 -7q-64 0 -121.5 23.5t-97.5 74.5t-40 119v489h102v-490q0 -54 48 -84.5t109 -30.5q60 0 108 31t48 85v489h102v-490q0 -67 -40 -118t-97.5 -74.5t-120.5 -23.5zM304 729h-95l72 107h136z" />
<glyph unicode="&#xfb;" horiz-adv-x="589" d="M277 -7q-64 0 -121.5 23.5t-97.5 74.5t-40 119v489h102v-490q0 -54 48 -84.5t109 -30.5q60 0 108 31t48 85v489h102v-490q0 -67 -40 -118t-97.5 -74.5t-120.5 -23.5zM229 729h-110l113 100h86l110 -100h-108l-48 39z" />
<glyph unicode="&#xfc;" horiz-adv-x="589" d="M277 -7q63 0 120.5 23.5t97.5 74.5t40 118v490h-102v-489q0 -54 -48 -85t-108 -31q-61 0 -109 30.5t-48 84.5v490h-102v-489q0 -68 40 -119t97.5 -74.5t121.5 -23.5zM186 830q26 0 42.5 -14.5t16.5 -38.5q0 -20 -17 -35t-42 -15q-22 0 -38.5 15.5t-16.5 34.5q0 23 16 38 t39 15zM372 830q26 0 42 -14.5t16 -38.5q0 -19 -17.5 -34.5t-40.5 -15.5t-39.5 15.5t-16.5 34.5q0 24 16 38.5t40 14.5z" />
<glyph unicode="&#xfd;" horiz-adv-x="567" d="M-50 699h119l191 -307l191 307h120l-260 -414v-285h-102v285zM294 730h-95l72 107h136z" />
<glyph unicode="&#xff;" horiz-adv-x="567" d="M69 699h-119l259 -414v-285h102v285l260 414h-120l-191 -307zM159 837q26 0 42.5 -16.5t16.5 -42.5q0 -22 -17 -39t-42 -17q-23 0 -39.5 17t-16.5 39q0 26 16 42.5t40 16.5zM346 837q26 0 42 -16.5t16 -42.5q0 -21 -17.5 -38.5t-40.5 -17.5t-40 17t-17 39q0 26 16.5 42.5 t40.5 16.5z" />
<glyph unicode="&#x152;" horiz-adv-x="829" d="M465 299v-200h325v-101h-371q-33 -5 -64 -5q-152 0 -255 101.5t-103 255.5t103 255.5t255 101.5q30 0 55 -4h378v-101h-323v-201h316v-102h-316zM355 614q-108 -1 -182 -78t-74 -186q0 -110 74 -186t182 -76h5h3v526h-8z" />
<glyph unicode="&#x153;" horiz-adv-x="829" d="M465 299v-200h325v-101h-371q-33 -5 -64 -5q-152 0 -255 101.5t-103 255.5t103 255.5t255 101.5q30 0 55 -4h378v-101h-323v-201h316v-102h-316zM355 614q-108 -1 -182 -78t-74 -186q0 -110 74 -186t182 -76h5h3v526h-8z" />
<glyph unicode="&#x160;" horiz-adv-x="554" d="M498 523l-100 -4q-10 44 -51.5 67t-91.5 22q-87 -2 -127 -53q-20 -26 -17 -65q1 -21 12 -36t24 -24t37 -15t40.5 -8t45.5 -5q43 -5 75.5 -13t70 -23.5t62 -44t34.5 -68.5q5 -25 5 -46q0 -96 -79 -154.5t-181 -58.5q-56 0 -110 20.5t-95 65t-47 103.5l-1 19l102 2l1 -15v4 q5 -46 51 -72.5t100 -26.5q61 0 109 31.5t48 82.5q0 10 -3 24q-4 19 -18 32t-38.5 20t-44.5 10.5t-53 6.5q-39 4 -67.5 9t-63 17.5t-57.5 31t-40 50t-20 73.5v-1q-6 75 38 133q34 44 91.5 68.5t120.5 24.5q89 0 157 -47t81 -137zM305 835h110l-113 -100l-89 1l-110 99h108 l49 -39z" />
<glyph unicode="&#x161;" horiz-adv-x="554" d="M498 523l-100 -4q-10 44 -51.5 67t-91.5 22q-87 -2 -127 -53q-20 -26 -17 -65q1 -21 12 -36t24 -24t37 -15t40.5 -8t45.5 -5q43 -5 75.5 -13t70 -23.5t62 -44t34.5 -68.5q5 -25 5 -46q0 -96 -79 -154.5t-181 -58.5q-56 0 -110 20.5t-95 65t-47 103.5l-1 19l102 2l1 -15v4 q5 -46 51 -72.5t100 -26.5q61 0 109 31.5t48 82.5q0 10 -3 24q-4 19 -18 32t-38.5 20t-44.5 10.5t-53 6.5q-39 4 -67.5 9t-63 17.5t-57.5 31t-40 50t-20 73.5v-1q-6 75 38 133q34 44 91.5 68.5t120.5 24.5q89 0 157 -47t81 -137zM305 835h110l-113 -100l-89 1l-110 99h108 l49 -39z" />
<glyph unicode="&#x178;" horiz-adv-x="567" d="M69 699h-119l259 -414v-285h102v285l260 414h-120l-191 -307zM159 837q26 0 42.5 -16.5t16.5 -42.5q0 -22 -17 -39t-42 -17q-23 0 -39.5 17t-16.5 39q0 26 16 42.5t40 16.5zM346 837q26 0 42 -16.5t16 -42.5q0 -21 -17.5 -38.5t-40.5 -17.5t-40 17t-17 39q0 26 16.5 42.5 t40.5 16.5z" />
<glyph unicode="&#x17d;" horiz-adv-x="561" d="M1 598v101h503l34 -64l-406 -534h400v-101h-520l-41 56l412 542h-382zM316 835h110l-113 -100l-89 1l-110 99h108l49 -39z" />
<glyph unicode="&#x17e;" horiz-adv-x="561" d="M1 598v101h503l34 -64l-406 -534h400v-101h-520l-41 56l412 542h-382zM316 835h110l-113 -100l-89 1l-110 99h108l49 -39z" />
<glyph unicode="&#x2c6;" horiz-adv-x="312" d="M104 632h-110l113 100h86l110 -100h-108l-48 39z" />
<glyph unicode="&#x2da;" horiz-adv-x="279" d="M44 697q0 35 24.5 60t58.5 25q35 0 60 -25t25 -60t-25 -59.5t-60 -24.5q-34 0 -58.5 25t-24.5 59zM160 697q0 13 -9.5 23t-23.5 10q-12 0 -21.5 -10t-9.5 -23q0 -12 9.5 -21.5t21.5 -9.5q15 0 24 9t9 22z" />
<glyph unicode="&#x2dc;" horiz-adv-x="348" d="M88 611l-60 25q31 77 67 83q19 2 42 -7.5t37 -18.5t26.5 -4.5t18.5 31.5l65 -29q-27 -70 -60 -83q-13 -5 -30 0.5t-31.5 14t-28.5 14.5t-26 0.5t-20 -26.5z" />
<glyph unicode="&#x3a9;" horiz-adv-x="704" />
<glyph unicode="&#x3c0;" horiz-adv-x="643" />
<glyph unicode="&#x2026;" horiz-adv-x="469" d="M70 113q26 0 42.5 -16t16.5 -42q0 -22 -17 -39.5t-42 -17.5q-23 0 -39.5 17.5t-16.5 39.5q0 26 16 42t40 16zM222 113q26 0 42 -16t16 -42q0 -22 -16.5 -39.5t-41.5 -17.5q-23 0 -40 17.5t-17 39.5q0 26 16.5 42t40.5 16zM377 113q26 0 42 -16t16 -42q0 -22 -16.5 -39.5 t-41.5 -17.5q-23 0 -40 17.5t-17 39.5q0 26 16.5 42t40.5 16z" />
<glyph unicode="&#x2044;" horiz-adv-x="326" />
<glyph unicode="&#x20ac;" horiz-adv-x="738" d="M-12 357v69h45q22 98 92 173q101 104 242 104q120 0 208 -69.5t118 -188.5h-100q-27 77 -87 117.5t-139 40.5q-100 0 -172 -75q-44 -48 -61 -102h173v-69h-184v-9v-16h184v-73h-168q17 -48 56 -89q72 -75 172 -75q80 0 142.5 44t89.5 123h99q-30 -120 -120 -193.5 t-211 -73.5q-143 0 -242 104q-65 69 -89 160h-48v73h37v16v9h-37z" />
<glyph unicode="&#x2113;" horiz-adv-x="489" />
<glyph unicode="&#x2126;" horiz-adv-x="704" />
<glyph unicode="&#x212e;" horiz-adv-x="657" d="M621 295h-456v-203q68 -66 162 -66q137 0 219 134q6 -4 18 -11t18 -11q-50 -75 -108.5 -112.5t-146.5 -37.5q-129 0 -208.5 88.5t-79.5 219.5t78.5 219t210.5 88q133 0 211 -87.5t82 -220.5zM491 333v166q-70 67 -163 67q-97 0 -163 -66v-167h326z" />
<glyph unicode="&#x2202;" horiz-adv-x="570" />
<glyph unicode="&#x2206;" horiz-adv-x="601" />
<glyph unicode="&#x220f;" horiz-adv-x="711" />
<glyph unicode="&#x2211;" horiz-adv-x="624" />
<glyph unicode="&#x2212;" horiz-adv-x="494" />
<glyph unicode="&#x2215;" horiz-adv-x="326" />
<glyph unicode="&#x2219;" horiz-adv-x="165" />
<glyph unicode="&#x221a;" horiz-adv-x="505" />
<glyph unicode="&#x221e;" horiz-adv-x="774" />
<glyph unicode="&#x222b;" horiz-adv-x="486" />
<glyph unicode="&#x2248;" horiz-adv-x="494" />
<glyph unicode="&#x2260;" horiz-adv-x="494" />
<glyph unicode="&#x2264;" horiz-adv-x="494" />
<glyph unicode="&#x2265;" horiz-adv-x="494" />
<glyph unicode="&#x25ca;" horiz-adv-x="553" d="M484 333l-195 -333h-74l-97 166l-98 166l195 335h74zM251 129l120 204q-12 22 -26.5 47t-32.5 55.5t-28 47.5l-32 54l-39 -66q-48 -84 -81 -139zM215 69l36 60l13 -20l24 -41zM384 354v-42l-13 21z" />
<glyph unicode="&#x25fc;" horiz-adv-x="700" d="M0 700h700v-700h-700v700z" />
<glyph unicode="&#xe000;" horiz-adv-x="467" d="M113 177v-76h325v-101h-427v699h426v-101h-324v-322h317v-99h-317z" />
<glyph unicode="&#xe001;" horiz-adv-x="467" d="M113 177v-76h325v-101h-427v699h426v-101h-324v-322h317v-99h-317zM273 735h-95l72 107h136z" />
<glyph unicode="&#xe002;" horiz-adv-x="467" d="M113 101v76h317v99h-317v322h324v101h-426v-699h427v101h-325zM298 735h-95l-113 107h136z" />
<glyph unicode="&#xe003;" horiz-adv-x="466" d="M113 177v-76h325v-101h-427v699h426v-101h-324v-322h317v-99h-317zM184 735h-110l113 100h86l110 -100h-108l-48 39z" />
<glyph unicode="&#xe004;" horiz-adv-x="467" d="M113 101v76h317v99h-317v322h324v101h-426v-699h427v101h-325zM142 825q26 0 41.5 -13t15.5 -35q0 -18 -16 -32t-41 -14q-23 0 -39 14t-16 32q0 21 15.5 34.5t39.5 13.5zM324 825q25 0 40.5 -13t15.5 -35q0 -18 -17 -32t-39 -14q-23 0 -39.5 14t-16.5 32q0 21 16 34.5 t40 13.5z" />
<glyph unicode="&#xe005;" horiz-adv-x="459" d="M113 171v-171h-101v699h417v-101h-316v-325h280v-102h-280z" />
<glyph unicode="&#xe006;" horiz-adv-x="563" d="M116 699v-429h296v429h102v-699h-102v170h-296v-170h-101v699h101z" />
<glyph unicode="&#xe007;" d="M440 459v239h100v-698h-100v347l-316 212v-559h-102v698h69z" />
<glyph unicode="&#xe008;" d="M440 459v239h100v-698h-100v347l-316 212v-559h-102v698h69zM203 713l-59 27q18 39 34 58.5t37 21.5q19 1 41.5 -9.5t36 -20.5t26.5 -6t20 31l63 -32q-29 -68 -64 -80q-16 -5 -37.5 5t-37 21.5t-32.5 10t-28 -26.5z" />
<glyph unicode="&#xe009;" horiz-adv-x="585" d="M21 35v664h102v-595q0 -9 32 -15.5t78 -8t92 0t78 8t32 15.5v595h102v-665q0 -29 -129 -41.5t-258 -0.5t-129 43z" />
<glyph unicode="&#xe00a;" horiz-adv-x="585" d="M21 35v664h102v-595q0 -9 32 -15.5t78 -8t92 0t78 8t32 15.5v595h102v-665q0 -29 -129 -41.5t-258 -0.5t-129 43zM309 735h-95l72 107h136z" />
<glyph unicode="&#xe00b;" horiz-adv-x="585" d="M21 699v-664q0 -31 129 -43t258 0.5t129 41.5v665h-102v-595q0 -15 -78 -21.5t-156 -0.5t-78 22v595h-102zM345 735h-95l-113 107h136z" />
<glyph unicode="&#xe00c;" horiz-adv-x="585" d="M21 35v664h102v-595q0 -9 32 -15.5t78 -8t92 0t78 8t32 15.5v595h102v-665q0 -29 -129 -41.5t-258 -0.5t-129 43zM236 735h-110l113 100h86l110 -100h-108l-48 39z" />
<glyph unicode="&#xe00d;" horiz-adv-x="585" d="M21 699v-664q0 -31 129 -43t258 0.5t129 41.5v665h-102v-595q0 -15 -78 -21.5t-156 -0.5t-78 22v595h-102zM190 825q26 0 41.5 -13t15.5 -35q0 -18 -16 -32t-41 -14q-23 0 -39 14t-16 32q0 21 15.5 34.5t39.5 13.5zM372 825q25 0 40.5 -13t15.5 -35q0 -18 -17 -32 t-39 -14q-23 0 -39.5 14t-16.5 32q0 21 16 34.5t40 13.5z" />
<glyph unicode="&#xe00e;" horiz-adv-x="593" d="M-27 700h116l193 -385l183 385h114l-339 -700h-112l97 202z" />
<glyph unicode="&#xe00f;" horiz-adv-x="591" d="M97 700h-116l252 -498l-97 -202h112l339 700h-114l-183 -385zM200 823q26 0 41.5 -13t15.5 -35q0 -18 -16 -32t-41 -14q-23 0 -39 14t-16 32q0 21 15.5 34.5t39.5 13.5zM382 823q25 0 40.5 -13t15.5 -35q0 -18 -17 -32t-39 -14q-23 0 -39.5 14t-16.5 32q0 21 16 34.5 t40 13.5z" />
<glyph unicode="&#xe010;" horiz-adv-x="372" />
<glyph unicode="&#xe011;" horiz-adv-x="423" />
</font>
</defs>
</svg>
